<svg xmlns="http://www.w3.org/2000/svg" xmlns:xlink="http://www.w3.org/1999/xlink" viewBox="0 0 218.269 90.71"><path fill="#1D1E1C" d="M84.086 52.962h.058c.26-1.16.755-3.223 4.848-17.59h2.642L85.45 55.63h-2.786l-6.153-20.26h2.816c4.034 14.367 4.53 16.43 4.76 17.59m12.828-17.59h2.554v20.262h-2.555zm23.365 10.016c0 6.53-2.64 10.594-7.576 10.594-4.847 0-7.547-4.092-7.547-10.45 0-6.443 2.758-10.507 7.75-10.507 4.702 0 7.373 4.12 7.373 10.363m-12.452.03c0 4.962 1.74 8.242 4.876 8.242 3.077 0 4.848-3.308 4.848-8.156 0-5.022-1.684-8.244-4.848-8.244-3.105 0-4.876 3.367-4.876 8.157m20.695-10.045v18.056h6.647v2.206h-9.23v-20.26m17.18-.002v18.056h6.65v2.206h-9.232v-20.26m14.657-.002h2.555v20.262h-2.555zm19.855 0v2.178h-6.968v6.502h6.59v2.178h-6.59v7.17l7.257-.002v2.236h-9.783v-20.26m20.087-.002c4.12 0 7.43.988 7.43 5.313 0 2.613-1.655 4.238-4.122 4.79v.028c1.25.263 1.947.96 2.556 2.614l2.757 7.518h-2.845l-2.264-6.56c-.697-2.004-1.596-2.612-3.483-2.612h-1.044v9.172h-2.554v-20.26h3.57zm-1.045 9.028h1.19c3.134 0 4.614-1.248 4.614-3.54 0-2.526-1.798-3.34-4.992-3.34h-.812v6.88z"/><defs><path id="a" d="M35.556 35.365H24.378v13.87l11.508 17.193H55.82z"/></defs><clipPath id="b"><use xlink:href="#a" overflow="visible"/></clipPath><linearGradient id="c" gradientUnits="userSpaceOnUse" x1="-255.178" y1="195.885" x2="-254.878" y2="195.885" gradientTransform="matrix(-104.808 0 0 104.808 -26689 -20479.438)"><stop offset="0" stop-color="#FDEDE8"/><stop offset="1" stop-color="#EF847A"/></linearGradient><path fill="#F8C5BA" d="M55.00 35.365H67V55.63H55.0z"/><path clip-path="url(#b)" fill="url(#c)" d="M24.378 35.365H55.82v31.063H24.378z"/><path fill="#E30535" d="M55.82 55.63v10.8l-7.044-10.8m-13.22-31.722H55.82v11.457H35.556z"/><defs><path id="d" d="M35.556 35.365H58.82V55.63h-10.044z"/></defs><clipPath id="e"><use xlink:href="#d" overflow="visible"/></clipPath><linearGradient id="f" gradientUnits="userSpaceOnUse" x1="-251.463" y1="196.002" x2="-251.164" y2="196.002" gradientTransform="matrix(67.548 0 0 -67.548 17021.438 13285)"><stop offset="0" stop-color="#E95254"/><stop offset="1" stop-color="#F18E84"/></linearGradient><path clip-path="url(#e)" fill="url(#f)" d="M35.556 35.365H55.82V55.63H35.557z"/></svg>